<svg xmlns="http://www.w3.org/2000/svg">
 

    <title>ibmmarketing svg sprite</title>

    <symbol id="jellyfish-logo" viewBox="0 0 120.8 31.1">
        <path class="a" d="M62.7,5V18.6A6.8,6.8,0,0,1,61,23.5a6.5,6.5,0,0,1-3.5,1.8v5.6a.2.2,0,0,1-.2.3H54.2a.3.3,0,0,1-.3-.2s0,0,0,0V25.3a6.2,6.2,0,0,1-3.3-1.6c-1-1-1.7-2.3-1.7-5.1V5a.3.3,0,0,1,.3-.3h3.1a.3.3,0,0,1,.3.3V18.5a4.2,4.2,0,0,0,.9,3,3,3,0,0,0,2.2.8h.3a3,3,0,0,0,2.3-.9,4.1,4.1,0,0,0,.9-2.9V5a.3.3,0,0,1,.3-.3h3.1a.2.2,0,0,1,.3.2h0M.3,28.8H.9c3.1,0,5.2-.7,6.5-1.9A5.5,5.5,0,0,0,9,22.6V5a.2.2,0,0,0-.3-.2H1.4a.2.2,0,0,0-.3.2s0,0,0,0V8a.3.3,0,0,0,.3.3h4V21.4c0,1.9-.4,2.9-1.4,3.4a7.1,7.1,0,0,1-3.5.6H.3a.2.2,0,0,0-.3.3v2.9a.2.2,0,0,0,.2.3h0M22.9,13.3H16.2v-.9a5.1,5.1,0,0,1,.9-3.4,3,3,0,0,1,2.4-1h.1A3.2,3.2,0,0,1,22,9a4.9,4.9,0,0,1,.9,3.4Zm1.9-6.7a7.1,7.1,0,0,0-5.2-2.1,7,7,0,0,0-5.1,2.1c-1.3,1.4-1.9,3.2-1.9,6.4v4.7c0,3.2.6,5,1.9,6.3a6.5,6.5,0,0,0,4.8,1.8A7.1,7.1,0,0,0,26,21.5c.1-.2,0-.3-.1-.4l-2.4-1.2c-.2-.1-.3,0-.4.1a4,4,0,0,1-3.6,2.4,3.2,3.2,0,0,1-2.3-.9,4.8,4.8,0,0,1-1-3.5V16.8h10a.2.2,0,0,0,.2-.2h0V12.7c0-3.3-.7-5-1.8-6.2M45.4,25.7h1a.3.3,0,0,0,.3-.2s0,0,0,0V22.5a.2.2,0,0,0-.2-.3h-.6a2.5,2.5,0,0,1-1.8-.6c-.5-.5-.6-1.2-.6-2.5V.4a.2.2,0,0,0-.2-.3H40a.3.3,0,0,0-.3.2s0,0,0,0V20.3c0,2.1.5,3.2,1.3,4a6.3,6.3,0,0,0,4.4,1.4m-9.5,0a6.3,6.3,0,0,1-4.3-1.4c-.8-.8-1.3-1.9-1.3-4V.4a.2.2,0,0,1,.2-.3h3.2a.3.3,0,0,1,.3.2s0,0,0,0V19.2a3.4,3.4,0,0,0,.6,2.5,2.5,2.5,0,0,0,1.8.6h.5a.2.2,0,0,1,.3.3v2.9a.2.2,0,0,1-.2.3H35.8ZM105.4.4V21.9H104a.3.3,0,0,0-.3.3h0v3a.3.3,0,0,0,.3.3h6.3a.3.3,0,0,0,.3-.3h0v-3a.3.3,0,0,0-.3-.3H109V12.5A4.7,4.7,0,0,1,110,9a3.4,3.4,0,0,1,2.6-1,3,3,0,0,1,2.3.9c.6.7.9,1.8.9,3.6v9.4h-1.3a.3.3,0,0,0-.3.3h0v3a.3.3,0,0,0,.3.3h6.2a.3.3,0,0,0,.3-.3h0v-3a.3.3,0,0,0-.3-.3h-1.2V11.4c0-2.6-.6-4.1-1.7-5.3a5.9,5.9,0,0,0-4.2-1.7A6.3,6.3,0,0,0,109,6.2V.4a.3.3,0,0,0-.3-.3h-3.1a.2.2,0,0,0-.3.2h0M76,8.8v3a.3.3,0,0,1-.2.3H70.9v9.8h1.4a.3.3,0,0,1,.3.3h0v3a.3.3,0,0,1-.3.3H66.2a.3.3,0,0,1-.3-.3h0v-3a.3.3,0,0,1,.3-.3h1.1V7.7c0-2.7.4-4.4,1.9-5.9A8,8,0,0,1,74.9,0h1.4c.2,0,.3.1.3.3v3c0,.2-.2.3-.3.3h-.8c-1.7,0-2.8.3-3.5,1a4.4,4.4,0,0,0-.9,3.3v.7h4.8c.2,0,.3.1.3.3m2.9,3.3h1.3v9.8H78.9a.3.3,0,0,0-.3.3h0v3a.3.3,0,0,0,.3.3h6.3a.3.3,0,0,0,.3-.3h0v-3a.3.3,0,0,0-.3-.3H83.9V8.9a.3.3,0,0,0-.3-.3H78.9c-.2,0-.3.1-.3.3v3a.3.3,0,0,0,.2.3h.1M80,1.5h3.5a.2.2,0,0,1,.3.3V5.4a.2.2,0,0,1-.2.3H80a.3.3,0,0,1-.3-.2s0,0,0,0V1.8a.2.2,0,0,1,.2-.3H80M96,13.6c4.1,1.6,5.6,2.8,5.6,5.8V20c0,3.3-2.6,5.7-6.9,5.7S88,23.3,88,20.1v-.9a.3.3,0,0,1,.3-.3h2.9c.3,0,.4.1.4.3,0,2.2,1,3.4,3.3,3.4s3.1-1.1,3.1-2.5-.7-2.3-4.2-3.6-5.4-2.4-5.4-5.9V10c0-3.2,2.4-5.7,6.3-5.7s6.2,2,6.2,5.6v.6c0,.2-.1.3-.3.3H97.9c-.3,0-.5-.1-.5-.4,0-1.8-.8-2.9-2.7-2.9A2.4,2.4,0,0,0,92,9.9c0,2,.7,2.3,4.1,3.6"/>
    </symbol>

    <symbol id="pencil" viewBox="0 0 33.6 33.6">
        <path class="a" d="M8.8,31.2,32.9,7.1a.7.7,0,0,0,0-.9L27.5.7a.7.7,0,0,0-.9,0L2.4,24.9.7,32.9Z"/><line class="a" x1="24" y1="3.3" x2="30.3" y2="9.6"/><line class="a" x1="22.9" y1="4.3" x2="29.3" y2="10.7"/><line class="a" x1="27.2" y1="8.7" x2="6.7" y2="29.2"/><line class="a" x1="25" y1="6.4" x2="4.5" y2="27"/><line class="a" x1="1.2" y1="30.2" x2="3.3" y2="32.3"/><line class="a" x1="2.4" y1="24.8" x2="8.8" y2="31.2"/>
    </symbol>

    <symbol id="microphone" viewBox="0 0 22.4 40.3">
        <path class="a" d="M11.3.5h0a7.9,7.9,0,0,1,7.9,7.9V21.9a7.9,7.9,0,0,1-7.9,7.9h0a7.9,7.9,0,0,1-7.9-7.9V8.4A7.9,7.9,0,0,1,11.3.5Z"/><line class="a" x1="11.3" y1="32.6" x2="11.3" y2="39.8"/><line class="a" x1="0.1" y1="39.8" x2="21.6" y2="39.8"/><path class="a" d="M.5,15.1v7.5a10,10,0,0,0,10,10h1.4a10,10,0,0,0,10-10V15.1"/>
    </symbol>

    <symbol id="lightbulb" viewBox="0 0 22.5 38">
        <path class="a" d="M15,33.7a3.8,3.8,0,0,1-7.5,0"/><path class="a" d="M5.6,25.2H16.9a1.3,1.3,0,0,1,1.3,1.3v.1A1.4,1.4,0,0,1,16.9,28H5.6a1.4,1.4,0,0,1-1.4-1.4v-.1A1.4,1.4,0,0,1,5.6,25.2Z"/><path class="a" d="M5.6,28H16.9a1.3,1.3,0,0,1,1.3,1.3v.1a1.4,1.4,0,0,1-1.4,1.4H5.6a1.4,1.4,0,0,1-1.4-1.4v-.1A1.4,1.4,0,0,1,5.6,28Z"/><path class="a" d="M5.6,30.8H16.9a1.3,1.3,0,0,1,1.3,1.3v.1a1.4,1.4,0,0,1-1.4,1.4H5.6a1.4,1.4,0,0,1-1.4-1.4v-.1A1.4,1.4,0,0,1,5.6,30.8Z"/><path class="a" d="M20,17.6c-2.1,3.8-2.6,4.4-2.6,7.6H5.2c0-3.2-.5-3.8-2.6-7.6a10.8,10.8,0,1,1,17.4,0Z"/>
    </symbol>

     <symbol id="scroll-button-1" viewBox="0 0 152.6 94.6">
        <polyline points="100.2 70 76.3 93.9 52.4 70" style="fill:none;stroke:#8bc53f;stroke-miterlimit:10"/><line x1="76.3" y1="45.7" x2="76.3" y2="82.3" style="fill:none;stroke:#8bc53f;stroke-linecap:round;stroke-linejoin:round;stroke-width:4px;stroke-dasharray:0.30000001192092896,13"/><rect x="0.5" y="0.5" width="151.6" height="30.65" rx="15.3" ry="15.3" style="fill:none;stroke:#8bc53f;stroke-miterlimit:10"/><text transform="translate(14 20)" style="isolation:isolate;font-size:10.369999885559082px;fill:#8bc53f;font-family:ArialMT, Arial;letter-spacing:0.20002109671076165em">SCROLL FOR MORE</text>
    </symbol>

     <symbol id="scroll-button-2" viewBox="0 0 123.8 75.3">
        <polyline class="a" points="81.4 56.7 63.5 74.6 45.6 56.7"/><line class="b" x1="63.5" y1="42" x2="63.5" y2="72.4"/><path class="c" d="M106.1,1a16.8,16.8,0,0,1,16.8,16.8h0a16.8,16.8,0,0,1-16.7,16.8H17.8A16.8,16.8,0,0,1,1,17.8H1A16.8,16.8,0,0,1,17.8,1h88.3m0-1H17.8a17.8,17.8,0,0,0,0,35.5h88.3a17.8,17.8,0,0,0,0-35.5Z"/><path class="c" d="M106,7a10.8,10.8,0,0,1,10.8,10.8h0A10.8,10.8,0,0,1,106,28.5H17.9A10.8,10.8,0,0,1,7.1,17.7h0A10.8,10.8,0,0,1,17.9,7H106m0-1H17.9a11.8,11.8,0,1,0,0,23.5H106A11.8,11.8,0,1,0,106,6Z"/><g class="d"><path class="c" d="M15.4,19.3h.7a1.6,1.6,0,0,0,.2.7l.6.4.9.2h.8l.5-.4a.8.8,0,0,0,.2-.5.7.7,0,0,0-.2-.5l-.5-.3-1-.3-1.1-.4-.6-.5a1.3,1.3,0,0,1-.2-.7,1.5,1.5,0,0,1,.2-.8,1.5,1.5,0,0,1,.7-.6l1.1-.2,1.1.2a1.6,1.6,0,0,1,.7.6,1.7,1.7,0,0,1,.3.9h-.7a1.2,1.2,0,0,0-.4-.8,1.5,1.5,0,0,0-1-.3,1.6,1.6,0,0,0-1,.3.8.8,0,0,0-.3.6.7.7,0,0,0,.2.5l1.1.4,1.3.4a1.7,1.7,0,0,1,.7.6,1.4,1.4,0,0,1,.2.8,1.6,1.6,0,0,1-.3.9,1.7,1.7,0,0,1-.8.6l-1.1.2L16.5,21a1.8,1.8,0,0,1-.8-.7A1.9,1.9,0,0,1,15.4,19.3Z"/><path class="c" d="M26.7,19.1l.8.2a2.6,2.6,0,0,1-.9,1.4,2.4,2.4,0,0,1-1.5.5,2.7,2.7,0,0,1-1.5-.4,2.4,2.4,0,0,1-.9-1.1,3.9,3.9,0,0,1-.3-1.5,3.4,3.4,0,0,1,.3-1.6,2.3,2.3,0,0,1,1-1,2.8,2.8,0,0,1,1.4-.3,2.3,2.3,0,0,1,1.4.4,2.3,2.3,0,0,1,.8,1.2l-.7.2a1.8,1.8,0,0,0-.6-.9,1.5,1.5,0,0,0-1-.3,1.9,1.9,0,0,0-1.1.3,1.7,1.7,0,0,0-.6.8,3.4,3.4,0,0,0-.2,1.1,3.5,3.5,0,0,0,.2,1.3,1.6,1.6,0,0,0,.7.8l1,.3a1.6,1.6,0,0,0,1.1-.4A1.9,1.9,0,0,0,26.7,19.1Z"/><path class="c" d="M30,21.1V15.4h2.5l1.2.2a1.3,1.3,0,0,1,.6.5,1.6,1.6,0,0,1,.2.9,1.4,1.4,0,0,1-.4,1,2,2,0,0,1-1.2.5l.5.3.6.8,1,1.6h-1l-.8-1.2-.5-.8-.4-.4-.3-.2H30.7v2.5Zm.8-3.2h2.4l.4-.3a.9.9,0,0,0,.2-.5.9.9,0,0,0-.3-.7,1.4,1.4,0,0,0-.9-.3H30.7Z"/><path class="c" d="M37.1,18.3a3.1,3.1,0,0,1,.8-2.2,2.6,2.6,0,0,1,2-.8,2.7,2.7,0,0,1,1.4.4,2.5,2.5,0,0,1,1,1.1,3.4,3.4,0,0,1,.3,1.5,3.4,3.4,0,0,1-.4,1.6,2.4,2.4,0,0,1-1,1,2.8,2.8,0,0,1-1.4.4,2.7,2.7,0,0,1-1.4-.4,2.5,2.5,0,0,1-1-1.1A3.2,3.2,0,0,1,37.1,18.3Zm.8,0a2.3,2.3,0,0,0,.6,1.6,1.9,1.9,0,0,0,2.8,0,2.4,2.4,0,0,0,.6-1.7,2.9,2.9,0,0,0-.2-1.2,1.8,1.8,0,0,0-.7-.8,1.9,1.9,0,0,0-1-.3,1.9,1.9,0,0,0-1.4.6A2.5,2.5,0,0,0,37.9,18.3Z"/><path class="c" d="M45.1,21.1V15.4h.8v5.1h2.8v.7Z"/><path class="c" d="M51.2,21.1V15.4h.8v5.1h2.8v.7Z"/><path class="c" d="M60.8,21.1V15.4h3.9v.7H61.6v1.8h2.7v.7H61.6v2.6Z"/><path class="c" d="M67,18.3a3.1,3.1,0,0,1,.8-2.2,2.6,2.6,0,0,1,2-.8,2.7,2.7,0,0,1,1.4.4,2.5,2.5,0,0,1,1,1.1,3.4,3.4,0,0,1,.3,1.5,3.4,3.4,0,0,1-.4,1.6,2.4,2.4,0,0,1-1,1,2.8,2.8,0,0,1-1.4.4,2.7,2.7,0,0,1-1.4-.4,2.5,2.5,0,0,1-1-1.1A3.2,3.2,0,0,1,67,18.3Zm.8,0a2.3,2.3,0,0,0,.6,1.6,1.9,1.9,0,0,0,2.8,0,2.4,2.4,0,0,0,.6-1.7,2.9,2.9,0,0,0-.2-1.2,1.8,1.8,0,0,0-.7-.8,1.9,1.9,0,0,0-1-.3,1.9,1.9,0,0,0-1.4.6A2.5,2.5,0,0,0,67.8,18.3Z"/><path class="c" d="M75.1,21.1V15.4h2.5l1.2.2a1.3,1.3,0,0,1,.6.5,1.6,1.6,0,0,1,.2.9,1.4,1.4,0,0,1-.4,1,2,2,0,0,1-1.2.5l.5.3.6.8,1,1.6h-1l-.8-1.2-.5-.8-.4-.4-.3-.2H75.9v2.5Zm.8-3.2h2.4l.4-.3a.9.9,0,0,0,.2-.5.9.9,0,0,0-.3-.7,1.4,1.4,0,0,0-.9-.3H75.9Z"/><path class="c" d="M86.3,21.1V15.4h1.1l1.4,4.1.3.8.3-.9,1.4-4h1v5.7H91V16.3l-1.7,4.8h-.7L87,16.2v4.9Z"/><path class="c" d="M94.3,18.3a3.1,3.1,0,0,1,.8-2.2,2.6,2.6,0,0,1,2-.8,2.7,2.7,0,0,1,1.4.4,2.5,2.5,0,0,1,1,1.1,3.4,3.4,0,0,1,.3,1.5,3.4,3.4,0,0,1-.4,1.6,2.4,2.4,0,0,1-1,1,2.8,2.8,0,0,1-1.4.4,2.7,2.7,0,0,1-1.4-.4,2.5,2.5,0,0,1-1-1.1A3.2,3.2,0,0,1,94.3,18.3Zm.8,0a2.3,2.3,0,0,0,.6,1.6,1.9,1.9,0,0,0,2.8,0,2.4,2.4,0,0,0,.6-1.7,2.9,2.9,0,0,0-.2-1.2,1.8,1.8,0,0,0-.7-.8,1.9,1.9,0,0,0-1-.3,1.9,1.9,0,0,0-1.4.6A2.5,2.5,0,0,0,95.1,18.3Z"/><path class="c" d="M102.4,21.1V15.4h2.5l1.2.2a1.3,1.3,0,0,1,.6.5,1.6,1.6,0,0,1,.2.9,1.4,1.4,0,0,1-.4,1,2,2,0,0,1-1.2.5l.5.3.6.8,1,1.6h-1l-.8-1.2-.5-.8-.4-.4-.3-.2h-1.3v2.5Zm.8-3.2h2.4l.4-.3a.9.9,0,0,0,.2-.5.9.9,0,0,0-.3-.7,1.4,1.4,0,0,0-.9-.3h-1.8Z"/><path class="c" d="M109.8,21.1V15.4h4.1v.7h-3.4v1.8h3.2v.7h-3.2v1.9h3.5v.7Z"/></g>
    </symbol>


    <symbol id="speaker-background" viewBox="0 0 194.2 194.2">
        <rect class="a" x="0.5" y="0.5" width="193.2" height="193.2"/><rect class="a" x="0.5" y="0.5" width="193.2" height="11.13"/><circle class="a" cx="7.3" cy="6.1" r="1.8"/><circle class="a" cx="20.4" cy="6.1" r="1.8"/><circle class="a" cx="13.8" cy="6.1" r="1.8"/>
    </symbol>

    <symbol id="page-divider-1" viewBox="0 0 1920 237.1">
        <rect width="1920" height="151.29" style="fill:#1c1c1c"/><rect y="151.3" width="1920" height="85.78" style="fill:#f1f1f2"/><polygon points="716.2 152.2 949.6 201.7 1920 151.3 1920 0 716.2 152.2" style="fill:#7f3f97"/><polygon points="716.2 152.2 0 237.1 0 0 716.2 152.2" style="fill:#8bc53f"/>
    </symbol>

    <symbol id="page-divider-2" viewBox="0 0 1918 96.7">
        <rect width="1918" height="96.74" style="fill:#fff"/><polygon points="0 0 1916 0 422.2 96.7 0 0" style="fill:#f1f1f2"/>
    </symbol>

    <symbol id="page-divider-3" viewBox="0 0 1920 125.6">
        <rect width="1920" height="125.63" style="fill:#fff"/><polygon points="2 125.6 1372 0 1920 125.6 2 125.6" style="fill:#f1f1f2"/>
    </symbol>

    <symbol id="page-divider-4"  viewBox="0 0 1920 101.7">
       <rect width="1920" height="101.72" style="fill:#f1f1f2"/><polygon points="0 26.5 543.9 61.9 1920 0 1920 101.7 0 101.7 0 26.5" style="fill:#2d2d2d"/>
    </symbol>

    <symbol id="lg-background" viewBox="0 0 970.3 508.1">
        <path class="a" d="M349.5,43.5H298.9a8.9,8.9,0,0,0-5,1.5"/><path class="a" d="M460.3,46.9H449.6a8.9,8.9,0,0,1-8.9-8.9v-.4a8.9,8.9,0,0,1,8.9-8.9h6.9a8.9,8.9,0,0,0,8.9-8.9v-.4a8.9,8.9,0,0,0-8.9-8.9H381.2a8.9,8.9,0,0,0-8.9,8.9v.4a8.9,8.9,0,0,1-8.9,8.9h-6.9a8.9,8.9,0,0,0-8.9,8.9V38a8.9,8.9,0,0,0,8.9,8.9h0a8.9,8.9,0,0,1,8.9,8.9v.4a8.9,8.9,0,0,1-8.9,8.9"/><line class="a" x1="553.4" y1="44.1" x2="523.7" y2="44.1"/><path class="a" d="M676.6,39.4h9.7a8.9,8.9,0,0,0,8.9-8.9V30a8.9,8.9,0,0,0-8.9-8.9H661.9a8.9,8.9,0,0,1-8.9-8.9V9.4A8.9,8.9,0,0,0,644.1.5H568.9A8.9,8.9,0,0,0,560,9.4v2.8a8.9,8.9,0,0,0,8.9,8.9h24.3a8.9,8.9,0,0,1,8.9,8.9v.4a8.9,8.9,0,0,1-8.9,8.9H561.3a8.9,8.9,0,0,0-8.9,8.9v.4a8.9,8.9,0,0,0,8.9,8.9h12.7a8.9,8.9,0,0,1,8.7,7.1"/><path class="a" d="M238.5,421.6a9.1,9.1,0,0,0,1.7-5.3h0a9.1,9.1,0,0,0-9.1-9.1H199.5a9.1,9.1,0,0,1-9.1-9.1h0a9.1,9.1,0,0,1,9.1-9.1h3.7"/><path class="a" d="M233,388.9h41.4a9.1,9.1,0,0,1,9.1,9.1h0a9.1,9.1,0,0,0,9.1,9.1h31.5a9.1,9.1,0,0,1,9.1,9.1h0a9.1,9.1,0,0,1-9.1,9.1H312a9.1,9.1,0,0,0-9.1,9.1h0a9.1,9.1,0,0,0,9.1,9.1h6.5a9.1,9.1,0,0,1,9.1,9.1h0a9.1,9.1,0,0,1-9.1,9.1H277.2"/><line class="a" x1="180.7" y1="95" x2="152.8" y2="95"/><path class="a" d="M106.8,125.1a9.1,9.1,0,0,0,8.7,6.4h12.2a9.1,9.1,0,0,1,9.1,9.1h0a9.1,9.1,0,0,1-9.1,9.1H96.3a9.1,9.1,0,0,0-9.1,9.1h0a9.1,9.1,0,0,0,9.1,9.1h74.9a9.1,9.1,0,0,0,9.1-9.1h0a9.2,9.2,0,0,1,.3-2.2"/><path class="a" d="M426.5,347.2a9.2,9.2,0,0,1,.3,2.4h0a9.1,9.1,0,0,1-9.1,9.1H405.5a9.1,9.1,0,0,0-9.1,9.1h0a9.1,9.1,0,0,0,9.1,9.1H437a9.1,9.1,0,0,1,9.1,9.1h0a9.1,9.1,0,0,1-9.1,9.1H362.1a9.1,9.1,0,0,1-9.1-9.1h0a9.1,9.1,0,0,0-9.1-9.1H329.5"/><path class="a" d="M847.9,309a9.1,9.1,0,0,0-9-7.6H803.5"/><path class="a" d="M825.8,322.5a9.1,9.1,0,0,1,6.6-2.8h6.5a9.1,9.1,0,0,0,9-7.7"/><path class="a" d="M794,374.5h.8a9.1,9.1,0,0,0,9.1-9.1h0a9.1,9.1,0,0,1,9.1-9.1h31.5a9.1,9.1,0,0,0,9.1-9.1h0a9.1,9.1,0,0,0-9.1-9.1H832.4a9.1,9.1,0,0,1-9.1-9.1h0a9.1,9.1,0,0,1,.7-3.5"/><line class="a" x1="775" y1="374.5" x2="787.9" y2="374.5"/><path class="a" d="M681.7,356.3h20a9.1,9.1,0,0,1,9.1,9.1h0a9.1,9.1,0,0,0,9.1,9.1h1.9"/><path class="a" d="M667.7,347.1a9.1,9.1,0,0,0,.7,3.6"/><line class="a" x1="828.8" y1="166.3" x2="803.5" y2="166.3"/><path class="a" d="M803.5,241.8h39.1a9.3,9.3,0,0,0,9.3-9.3h0v-.4a9.3,9.3,0,0,0-9.3-9.3h-6.6a9.3,9.3,0,0,1-9.3-9.3h0a9.3,9.3,0,0,1,9.3-9.3h24a9.3,9.3,0,0,0,9.3-9.3h0v-.4a9.3,9.3,0,0,0-.7-3.6"/><polyline class="b" points="75.5 125.1 75.5 77.6 92.6 77.6"/><line class="b" x1="133.4" y1="82.6" x2="142.4" y2="82.6"/><path class="b" d="M754.8,15.9v-1l2.6-2.3a14.3,14.3,0,0,0-1.8-4.3l-3.5.2-1.3-1.3.2-3.5A14.2,14.2,0,0,0,746.7,2l-2.3,2.6h-2L740.1,2a14.3,14.3,0,0,0-4.3,1.8l.2,3.5-1.3,1.3-3.5-.2a14.3,14.3,0,0,0-1.8,4.3L732,15v2l-2.6,2.3a14.3,14.3,0,0,0,1.8,4.3l3.5-.2,1.3,1.4-.2,3.5a14.2,14.2,0,0,0,4.3,1.7l2.3-2.6h2l2.3,2.6a14.3,14.3,0,0,0,4.3-1.8l-.2-3.5,1.3-1.3,3.5.2a14.3,14.3,0,0,0,1.8-4.3l-2.6-2.3C754.8,16.6,754.8,16.3,754.8,15.9Z"/><circle class="b" cx="743.4" cy="15.9" r="6.6"/><path class="b" d="M676.1,64.9a17.1,17.1,0,0,0,2-2l5.1.3a21.1,21.1,0,0,0,2.6-6.4l-3.7-3.4c0-.5.1-.9.1-1.4a9.4,9.4,0,0,0-.1-1.4l3.8-3.4a21.1,21.1,0,0,0-2.6-6.4l-5.1.3a17.1,17.1,0,0,0-2-2l.3-5.1a21.1,21.1,0,0,0-6.4-2.6L666.6,35h-2.8l-3.4-3.8a21.1,21.1,0,0,0-6.4,2.6l.3,5.1a17.1,17.1,0,0,0-2,2l-5.1-.3a21.1,21.1,0,0,0-2.6,6.4l3.8,3.4c0,.5-.1.9-.1,1.4a9.4,9.4,0,0,0,.1,1.4l-3.8,3.4a21.1,21.1,0,0,0,2.6,6.4l5.1-.3a17.1,17.1,0,0,0,2,2"/><circle class="b" cx="665.2" cy="51.9" r="9.8"/><path class="b" d="M260.4,347.2a5.1,5.1,0,0,1-.1,1"/><path class="c" d="M259.9,350.2a17.6,17.6,0,0,1-34.4-1"/><path class="b" d="M225.4,348.2v-1"/><path class="b" d="M257,347.2a4.3,4.3,0,0,1-.1,1"/><path class="d" d="M256.5,350.1a14.2,14.2,0,0,1-27.5-.9"/><path class="b" d="M228.8,348.2q-.1-.5-.1-1"/><path class="b" d="M246.7,347.2v.2a2.9,2.9,0,0,1,.2.7"/><path class="e" d="M247,349.8a3,3,0,0,1-.8,1.4l-.7.5"/><path class="b" d="M244.7,352.1l-1,.2V354h-1.3v-1.7l-1-.2"/><path class="f" d="M240.1,351.5l-.6-.5a3.5,3.5,0,0,1-.7-1.1"/><path class="b" d="M238.6,349.2a5.2,5.2,0,0,1-.1-1h1"/><path class="b" d="M240.4,348.2h1a2.8,2.8,0,0,0,.1,1"/><path class="g" d="M242.9,350.2h.1a1.2,1.2,0,0,0,.9-.3,1.3,1.3,0,0,0,.3-.9,2.1,2.1,0,0,0-.1-.5"/><path class="b" d="M243.7,347.7l-.9-.5"/><line class="b" x1="887.3" y1="162.5" x2="887.3" y2="160.4"/><line class="b" x1="887.3" y1="169.2" x2="887.3" y2="165.4"/><polyline class="b" points="837.2 178.5 837.2 190.9 887.3 190.9 887.3 171.6"/><path class="b" d="M879,163.3"/><line class="b" x1="849.7" y1="178.5" x2="837.2" y2="190.9"/><line class="b" x1="887.3" y1="190.9" x2="874.8" y2="178.5"/><path class="b" d="M226.1,65a29.7,29.7,0,0,0-25.7-33.3l-3.8-.2a29.6,29.6,0,0,0-17.5,5.7"/><path class="b" d="M167,63a29.7,29.7,0,0,0,15.4,24.3"/><path class="b" d="M222.2,65a25.9,25.9,0,0,0-21.8-29.3l-3.7-.3a25.7,25.7,0,0,0-14.5,4.4"/><path class="b" d="M170.8,59.3q-.1,1-.1,2a25.8,25.8,0,0,0,13.1,22.5"/><path class="b" d="M284.8,358.8a1.5,1.5,0,0,0-.3-1,3.1,3.1,0,0,0-1.1-.7l-1.5-.7-1.2-.8a3.1,3.1,0,0,1-.8-1,3.5,3.5,0,0,1-.3-1.5,3.1,3.1,0,0,1,1-2.4,4.1,4.1,0,0,1,2.6-1.1v-1.8h1.3v1.8a3.8,3.8,0,0,1,2.4,1.3,4,4,0,0,1,.9,2.6h-2.9a2.3,2.3,0,0,0-.3-1.4,1.1,1.1,0,0,0-1-.5,1.1,1.1,0,0,0-.9.4,1.4,1.4,0,0,0-.3,1,1.4,1.4,0,0,0,.4,1,3.5,3.5,0,0,0,1.1.7l1.5.7,1.2.8a3.3,3.3,0,0,1,.8,1.1,3.4,3.4,0,0,1,.3,1.5,3.2,3.2,0,0,1-.9,2.4,3.9,3.9,0,0,1-2.5,1.1V364h-1.3v-1.7a4.3,4.3,0,0,1-2.8-1.3,4,4,0,0,1-1-2.8h2.8a2.2,2.2,0,0,0,.4,1.5,1.5,1.5,0,0,0,1.2.5,1.2,1.2,0,0,0,.9-.3A1.3,1.3,0,0,0,284.8,358.8Z"/><path class="h" d="M283.4,373a16.6,16.6,0,0,0,3.4-.4v1a17.6,17.6,0,0,1-3.3.3,18.1,18.1,0,0,1-18.1-18.1,17.9,17.9,0,0,1,2.2-8.7h1.1A17.1,17.1,0,0,0,283.4,373Z"/><path class="h" d="M301.5,355.2l-1,.4a16.9,16.9,0,0,0-2.4-8.4h1.1A18,18,0,0,1,301.5,355.2Z"/><path class="h" d="M283.4,369.6a13.6,13.6,0,0,0,4.3-.7l-.3,1.1a14.7,14.7,0,0,1-15.8-22.9h1.3a13.7,13.7,0,0,0,10.6,22.4Z"/><path class="h" d="M298.2,355.9v.8l-1,.6c0-.4.1-.9.1-1.3a13.6,13.6,0,0,0-3.1-8.7h1.3A14.7,14.7,0,0,1,298.2,355.9Z"/><path class="b" d="M309.4,378.6a1.5,1.5,0,0,0-.3-1,3.1,3.1,0,0,0-1.2-.7l-1.5-.7-1.2-.8a3.1,3.1,0,0,1-.8-1,3.5,3.5,0,0,1-.3-1.5,3.1,3.1,0,0,1,1-2.4,4.1,4.1,0,0,1,2.6-1.1v-1.8h1.3v1.8a3.8,3.8,0,0,1,2.4,1.3,4,4,0,0,1,.9,2.6h-2.8a2.3,2.3,0,0,0-.3-1.4,1.1,1.1,0,0,0-1-.5,1.1,1.1,0,0,0-.9.4,1.4,1.4,0,0,0-.3,1,1.4,1.4,0,0,0,.3,1,3.5,3.5,0,0,0,1.1.7l1.5.7,1.2.8a3.3,3.3,0,0,1,.8,1.1,3.4,3.4,0,0,1,.3,1.5,3.2,3.2,0,0,1-.9,2.4,3.9,3.9,0,0,1-2.5,1.1v1.7h-1.3V382a4.3,4.3,0,0,1-2.8-1.3,4,4,0,0,1-1-2.8h2.8a2.2,2.2,0,0,0,.4,1.5,1.5,1.5,0,0,0,1.2.5,1.2,1.2,0,0,0,.9-.3A1.3,1.3,0,0,0,309.4,378.6Z"/><circle class="i" cx="218.1" cy="379.5" r="17.6"/><circle class="j" cx="218.1" cy="379.5" r="14.2"/><path class="b" d="M217.3,373.3h.5v-.5"/><polyline class="b" points="217.8 372 217.8 371.5 218.3 371.5"/><polyline class="b" points="218.7 371.5 219.2 371.5 219.2 372"/><path class="b" d="M219.1,372.8v.5h.5"/><path class="k" d="M220.5,373.7a3.5,3.5,0,0,1,1.1.9,3.6,3.6,0,0,1,.8,1.7"/><path class="b" d="M222.4,376.7q0,.2,0,.5h-.5"/><line class="l" x1="221.3" y1="377.2" x2="220.4" y2="377.2"/><path class="b" d="M220.1,377.2h-.5a3.7,3.7,0,0,0,0-.5"/><path class="m" d="M219.2,375.8a1.1,1.1,0,0,0-.9-.4,1.1,1.1,0,0,0-.9.4,1.4,1.4,0,0,0-.3,1,1.4,1.4,0,0,0,.4,1,3.5,3.5,0,0,0,1.1.7l1.5.7,1.2.8a3.3,3.3,0,0,1,.8,1.1,3.4,3.4,0,0,1,.3,1.5,3.2,3.2,0,0,1-.9,2.4,3.5,3.5,0,0,1-1.5.9"/><path class="b" d="M219.5,385.8H219v.5"/><polyline class="b" points="219 387 219 387.5 218.5 387.5"/><polyline class="b" points="218.1 387.5 217.6 387.5 217.6 387"/><path class="b" d="M217.6,386.3v-.5h-.5"/><path class="n" d="M216.1,385.5a3.6,3.6,0,0,1-2.2-2.7"/><path class="b" d="M213.9,382.3v-.5h.5"/><line class="o" x1="215" y1="381.8" x2="215.9" y2="381.8"/><path class="b" d="M216.2,381.8h.5a3.5,3.5,0,0,0,0,.5"/><path class="n" d="M217.1,383.2a1.5,1.5,0,0,0,1.2.5,1.2,1.2,0,0,0,.9-.3,1.3,1.3,0,0,0,.3-.9,1.5,1.5,0,0,0-.3-1,3.1,3.1,0,0,0-1.1-.7l-1.5-.7-1.2-.8a3.1,3.1,0,0,1-.8-1,3.5,3.5,0,0,1-.3-1.5,3.1,3.1,0,0,1,1-2.4l1.1-.7"/><line class="b" x1="879" y1="162.5" x2="879" y2="160.4"/><line class="b" x1="879" y1="169.2" x2="879" y2="165.4"/><polyline class="b" points="879 157.8 879 145.3 828.8 145.3 828.8 178.5 879 178.5 879 171.6"/><polyline class="b" points="879 145.3 853.9 170.2 828.8 145.3"/><line class="b" x1="845.5" y1="161.9" x2="828.8" y2="178.5"/><line class="b" x1="879" y1="178.5" x2="862.3" y2="161.9"/><polyline class="b" points="919.6 206.1 877.8 206.1 877.8 239.2 928 239.2 928 222.7"/><polyline class="b" points="919.6 214.4 902.9 230.9 877.8 206.1"/><line class="b" x1="894.5" y1="222.7" x2="877.8" y2="239.2"/><line class="b" x1="927.9" y1="239.2" x2="911.2" y2="222.7"/><rect class="b" x="919.6" y="189.5" width="50.2" height="33.13"/><polyline class="b" points="969.8 189.5 944.7 214.4 919.6 189.5"/><line class="b" x1="936.3" y1="206.1" x2="919.6" y2="222.7"/><line class="b" x1="969.8" y1="222.7" x2="953" y2="206.1"/><line class="b" x1="901.6" y1="162.5" x2="875.8" y2="162.5"/><line class="b" x1="893.2" y1="169.2" x2="873.9" y2="169.2"/><polygon class="h" points="882.5 160.4 879.9 162.1 880.5 162.9 884.3 160.4 882.5 160.4"/><line class="b" x1="891.9" y1="157.8" x2="870.7" y2="157.8"/><path class="b" d="M204.4,450.8V422.8a1.2,1.2,0,0,1,1.2-1.2H276a1.2,1.2,0,0,1,1.2,1.2h0v50.6a1.2,1.2,0,0,1-1.2,1.2H246.1"/><line class="b" x1="238.4" y1="474.7" x2="213.9" y2="474.7"/><polyline class="b" points="210 467.4 210 424.2 271.6 424.2 271.6 472.1 246.1 472.1"/><line class="b" x1="238.4" y1="472.1" x2="213.6" y2="472.1"/><circle class="b" cx="274.4" cy="448.1" r="1.7"/><path class="b" d="M213.9,486.4H209a11.7,11.7,0,0,1-11.7-11.7V453.6a4.1,4.1,0,0,1,4.1-4.1h0a4.1,4.1,0,0,1,4.1,4.1v8.9a4.4,4.4,0,0,0,3,4.2h0a8.1,8.1,0,0,1,5.4,7.6v3.1"/><path class="b" d="M213.9,486.4h4.9a11.7,11.7,0,0,0,11.7-11.7"/><line class="b" x1="216.9" y1="446.8" x2="264.7" y2="446.8"/><line class="b" x1="226.4" y1="450.9" x2="255.2" y2="450.9"/><line class="b" x1="221.8" y1="442" x2="259.8" y2="442"/><line class="b" x1="220" y1="436.8" x2="261.6" y2="436.8"/><rect class="b" x="217.8" y="424.2" width="46.9" height="7.97"/><path class="b" d="M238.4,466.4h-9.9a2.1,2.1,0,0,1-2.1-2.1h0v-4.5a2.1,2.1,0,0,1,2.1-2.1H253a2.1,2.1,0,0,1,2.1,2.1h0v4.5a2.1,2.1,0,0,1-2.1,2.1h-7"/><line class="b" x1="255.1" y1="456.9" x2="255.1" y2="454.2"/><line class="b" x1="256.3" y1="457.4" x2="258.2" y2="455.5"/><line class="b" x1="256.9" y1="458.7" x2="259.5" y2="458.7"/><path class="b" d="M269.1,479.3v13.6a14.7,14.7,0,0,1-14.7,14.7h0a16,16,0,0,1-16-16V464.5a4,4,0,0,1,3.9-4,3.8,3.8,0,0,1,3.8,3.8v15a3.8,3.8,0,0,1,7.7,0,3.8,3.8,0,0,1,7.7,0,3.8,3.8,0,0,1,7.7,0Z"/><path class="h" d="M318,366.3a13.8,13.8,0,1,1-5.1-3.4l-1.5-1.5a14.8,14.8,0,1,0,8.6,5.8Z"/><path class="h" d="M323.3,368a17.1,17.1,0,1,1-15.3-9.5h1.3l-.6-1H308a18.2,18.2,0,1,0,16.5,10.6Z"/><path class="b" d="M344.9,347.2a17.6,17.6,0,0,1-35.2,0"/><path class="b" d="M341.5,347.2a14.2,14.2,0,1,1-28.4,0"/><path class="b" d="M330.3,347.2h.2a3.3,3.3,0,0,1,.8,1.1,3.4,3.4,0,0,1,.3,1.5,3.2,3.2,0,0,1-.9,2.4,3.9,3.9,0,0,1-2.5,1.1V355h-1.3v-1.7a4.3,4.3,0,0,1-2.8-1.3,4,4,0,0,1-1-2.8h2.8a2.2,2.2,0,0,0,.4,1.5,1.5,1.5,0,0,0,1.2.5,1.2,1.2,0,0,0,.9-.3,1.3,1.3,0,0,0,.3-.9,1.5,1.5,0,0,0-.3-1,3.1,3.1,0,0,0-1.2-.7l-1.5-.7-.4-.2"/><polyline class="b" points="715.4 65 715.4 56 729.4 38.6 694.2 38.6 708.2 56 708.2 65"/><circle class="b" cx="703.2" cy="28.6" r="4.5"/><circle class="b" cx="711.8" cy="14" r="2"/><circle class="b" cx="722.7" cy="26.3" r="2.3"/><polyline class="b" points="92.6 88.2 92.6 59.4 133.4 59.4 133.4 68.3"/><line class="b" x1="133.4" y1="76" x2="133.4" y2="88.2"/><circle class="b" cx="104.7" cy="69.7" r="3.2"/><path class="b" d="M106.6,73.5l-2,3.4-2-3.4a4.6,4.6,0,0,0-2.6,4.1v4.6h9.1V77.6A4.6,4.6,0,0,0,106.6,73.5Z"/><line class="b" x1="202.5" y1="66.9" x2="219.8" y2="49.7"/><line class="b" x1="208.1" y1="38.1" x2="194.2" y2="52"/><path class="b" d="M213,79.4"/><polyline class="b" points="142.5 74.6 135.2 73.9 127.1 83 124.7 81.2 132.1 69.5 132.8 68.3 134.4 68.5 144.7 69.5"/><polyline class="b" points="142.4 88.2 147.2 85.5 148.4 84.8 148.4 83.2 147.9 73"/><polyline class="b" points="142.7 74.8 143 82.1 135.5 88.2"/><path class="b" d="M147.5,66.8l-4.8,4.5a2.4,2.4,0,0,0-.1,3.4h0a2.4,2.4,0,0,0,3.4.1h0l4.8-4.5"/><path class="b" d="M169.4,38.1l-.3.3L149.2,57.2a8.2,8.2,0,0,0-.3,11.6h0a8.2,8.2,0,0,0,11.6.3h0l14.2-13.5"/><path class="b" d="M201.6,67.3a8.2,8.2,0,0,0-1.5-9.5L180.6,38.4a8.2,8.2,0,0,0-11.6,0h0A8.2,8.2,0,0,0,169,50h0l19.4,19.4a8.2,8.2,0,0,0,5,2.4"/><ellipse class="b" cx="174.8" cy="45.1" rx="2.6" ry="3"/><circle class="b" cx="194.2" cy="63.6" r="2.4"/><polyline class="p" points="253.4 65 253.4 17.4 294.2 17.4 294.2 65.3"/><line class="p" x1="259.3" y1="50.2" x2="280.7" y2="50.2"/><line class="p" x1="259.3" y1="54.8" x2="288.3" y2="54.8"/><line class="p" x1="259.3" y1="59.4" x2="283.5" y2="59.4"/><circle class="p" cx="265.5" cy="27.6" r="3.2"/><path class="p" d="M267.5,31.5l-2,3.5-2-3.5a4.6,4.6,0,0,0-2.6,4.1v4.6H270V35.6A4.6,4.6,0,0,0,267.5,31.5Z"/><polygon class="b" points="143.3 125.1 75.5 125.1 87.2 88.2 155 88.2 143.3 125.1"/><path class="a" d="M858.1,75.7a9.1,9.1,0,0,0-8.8-6.8H837.1a9.1,9.1,0,0,1-9.1-9.1h0a9.1,9.1,0,0,1,9.1-9.1h6.5a9.1,9.1,0,0,0,9.1-9.1h0a9.1,9.1,0,0,0-9.1-9.1H768.6a9.1,9.1,0,0,0-9.1,9.1h0a9.1,9.1,0,0,1-9.1,9.1h-6.5a9.1,9.1,0,0,0-9.1,9.1h0a9.1,9.1,0,0,0,1.6,5.1"/><path class="a" d="M857.5,82a9.1,9.1,0,0,0,.9-3.4"/><path class="a" d="M803.5,104.6a9.1,9.1,0,0,0,5.1-8.2h0a9.1,9.1,0,0,1,9.1-9.1h31.5a9.1,9.1,0,0,0,5.8-2.2"/><rect class="q" x="800" y="363.7" width="4.4" height="44.06" transform="translate(-37.8 680.2) rotate(-45)"/><rect class="q" x="802.9" y="379.5" width="5.5" height="5.46" transform="translate(-34.3 681.6) rotate(-45)"/><polyline class="q" points="783.2 405.5 814.3 405.5 812.3 445.2 776 445.2 774.3 410.1"/><path class="q" d="M784.7,414.4v23.9a2.5,2.5,0,0,1-2.5,2.5h0a2.5,2.5,0,0,1-2.5-2.5V413.1a2.5,2.5,0,0,1,1.4-2.2"/><path class="q" d="M792.8,422.5v15.7a2.5,2.5,0,0,1-2.5,2.5h0a2.5,2.5,0,0,1-2.5-2.5V417.6"/><path class="q" d="M788.9,411.1a2.5,2.5,0,0,1,1.5-.5h0a2.5,2.5,0,0,1,2.5,2.5v2"/><path class="q" d="M796.1,418.3v-5.2a2.5,2.5,0,0,1,2.5-2.5h0a2.5,2.5,0,0,1,2.5,2.5v25.2a2.5,2.5,0,0,1-2.5,2.5h0a2.5,2.5,0,0,1-2.5-2.5V422.6"/><rect class="q" x="804.2" y="410.6" width="5" height="30.15" rx="2.5" ry="2.5"/><polyline class="q" points="765.9 382.9 775 382.9 775 358.8 738.4 358.8 738.4 364.8"/><line class="q" x1="744.5" y1="364.8" x2="738.4" y2="358.8"/><line class="q" x1="775" y1="358.8" x2="765.9" y2="367.8"/><line class="q" x1="775" y1="382.9" x2="765.9" y2="374"/><polyline class="q" points="758.5 367.8 758.5 364.8 721.9 364.8 721.9 389 729.3 389"/><line class="q" x1="729.3" y1="372.2" x2="721.9" y2="364.8"/><line class="q" x1="758.5" y1="364.8" x2="755.5" y2="367.8"/><line class="q" x1="729.3" y1="381.6" x2="721.9" y2="389"/><polyline class="q" points="765.9 383.9 765.9 367.8 729.3 367.8 729.3 392 758 392"/><polyline class="q" points="753.1 380.6 747.6 386 729.3 367.8"/><line class="q" x1="765.9" y1="367.8" x2="754.6" y2="379.1"/><line class="q" x1="741.5" y1="379.9" x2="729.3" y2="392"/><polyline class="q" points="781.1 403.3 798.2 420.5 794.5 424.2 777.3 407"/><polygon class="q" points="752 377.9 768.4 416 790 394.3 752 377.9"/><path class="a" d="M180.5,245.2h-6.9a9.5,9.5,0,0,1-9.5-9.5h0a9.5,9.5,0,0,1,9.5-9.5h6.9"/><path class="a" d="M64.9,149.1h0a9.5,9.5,0,0,1,9.5,9.5h0a9.5,9.5,0,0,1-9.5,9.5h0a9.5,9.5,0,0,1-9.5-9.5h0A9.5,9.5,0,0,1,64.9,149.1Z"/><path class="a" d="M170.8,388.9h0a9.5,9.5,0,0,1,9.5,9.5h0a9.5,9.5,0,0,1-9.5,9.5h0a9.5,9.5,0,0,1-9.5-9.5h0A9.5,9.5,0,0,1,170.8,388.9Z"/><path class="a" d="M83.1,281.5H78.5a9.1,9.1,0,0,1-9.1-9.1h0a9.1,9.1,0,0,1,9.1-9.1H97a9.1,9.1,0,0,0,9.1-9.1h0v-.8a9.1,9.1,0,0,1,9.1-9.1h27.6a9.1,9.1,0,0,0,9.1-9.1h0v-.8a9.1,9.1,0,0,0-9.1-9.1H116.2a9.1,9.1,0,0,1-9.1-9.1h0a9.1,9.1,0,0,0-9.1-9.1H23.4a9.1,9.1,0,0,0-9.1,9.1h0v.8a9.1,9.1,0,0,0,9.1,9.1H60.2a9.1,9.1,0,0,1,9.1,9.1h0a9.1,9.1,0,0,1-9.1,9.1H47.4a9.1,9.1,0,0,0-9.1,9.1h0a9.1,9.1,0,0,1-9.1,9.1H9.6a9.1,9.1,0,0,0-9.1,9.1h0v.8a9.1,9.1,0,0,0,9.1,9.1h6.3a9.1,9.1,0,0,1,9.1,9.1h0v.8a9.1,9.1,0,0,0,9.1,9.1H83.1"/><line class="b" x1="827" y1="309" x2="904.8" y2="309"/><line class="b" x1="812.9" y1="322.5" x2="855.3" y2="322.5"/><line class="b" x1="913.9" y1="75.7" x2="924.7" y2="75.7"/><line class="b" x1="929.4" y1="75.7" x2="934.8" y2="75.7"/><line class="b" x1="832.3" y1="75.7" x2="906.8" y2="75.7"/><line class="b" x1="838.7" y1="82" x2="885.8" y2="82"/><path class="a" d="M560.5,347.2a8.9,8.9,0,0,0,7.2,3.7h0a8.9,8.9,0,0,1,8.9,8.9v.4a8.9,8.9,0,0,1-8.9,8.9H548.4a8.9,8.9,0,0,0-8.9,8.9v.4a8.9,8.9,0,0,0,8.9,8.9h24.5a8.9,8.9,0,0,1,8.9,8.9v2.8a8.9,8.9,0,0,0,8.9,8.9h75.1a8.9,8.9,0,0,0,8.9-8.9v-2.8a8.9,8.9,0,0,0-8.9-8.9H641.6a8.9,8.9,0,0,1-8.9-8.9v-.4a8.9,8.9,0,0,1,8.9-8.9h31.9a8.9,8.9,0,0,0,8.9-8.9v-.4a8.9,8.9,0,0,0-8.9-8.9H660.8a8.9,8.9,0,0,1-7.3-3.8"/><path class="b" d="M159.8,280.9v38.7a4.1,4.1,0,0,1-4.1,4.1H87.2a4.1,4.1,0,0,1-4.1-4.1V277a4.1,4.1,0,0,1,4.1-4.1h56.6"/><path class="b" d="M158.9,323.7h-75a1.5,1.5,0,0,0-1.3.9L76.8,336c-.6,1.2.1,2.8,1.3,2.8h86.6c1.2,0,2-1.6,1.3-2.8l-5.8-11.4A1.5,1.5,0,0,0,158.9,323.7Z"/><polyline class="b" points="157.5 281.6 157.5 321 85.4 321 85.4 275.6 143.6 275.6"/><line class="b" x1="76.6" y1="336.9" x2="166.3" y2="336.9"/><path class="b" d="M124.8,336.9h0c0,.6-.9,1.1-1.9,1.1h-2.7c-1.1,0-1.9-.5-1.9-1.1h0"/><circle class="b" cx="96.5" cy="308.8" r="6"/><circle class="b" cx="96.5" cy="308.8" r="3.7"/><line class="b" x1="96.5" y1="302.7" x2="96.5" y2="305"/><line class="b" x1="99.4" y1="306.5" x2="101" y2="304.9"/><polyline class="b" points="107.9 303.2 107.9 314.4 122.2 314.4"/><rect class="b" x="107.9" y="304.3" width="11.5" height="1.8"/><rect class="b" x="107.9" y="307.9" width="7.6" height="1.8"/><rect class="b" x="107.9" y="311.1" width="10.1" height="1.8"/><line class="b" x1="127.6" y1="303.1" x2="149.2" y2="303.1"/><line class="b" x1="127.6" y1="306" x2="153.4" y2="306"/><line class="b" x1="127.6" y1="309" x2="147.2" y2="309"/><line class="b" x1="127.6" y1="311.9" x2="152.8" y2="311.9"/><line class="b" x1="127.6" y1="314.8" x2="149.2" y2="314.8"/><polyline class="b" points="93.7 284.7 103 290.6 112.4 286.6 121.7 280.9 131 287.7 140.3 286.7 149.7 290.6"/><circle class="h" cx="149.7" cy="290.6" r="1.4"/><circle class="h" cx="140.3" cy="286.7" r="1.4"/><circle class="h" cx="131" cy="287.7" r="1.4"/><circle class="h" cx="121.7" cy="280.9" r="1.4"/><circle class="h" cx="112.4" cy="286.6" r="1.4"/><circle class="h" cx="103" cy="290.6" r="1.4"/><circle class="h" cx="93.7" cy="284.7" r="1.4"/><polyline class="b" points="90.4 280.2 90.4 297.4 152.5 297.4"/><path class="b" d="M156.5,268h-6.1a6.8,6.8,0,0,0-1,13.6v2.8l2.4-2.7h4.6a6.8,6.8,0,1,0,0-13.7Z"/><path class="h" d="M152.8,277.5a.7.7,0,0,1,.2-.5l.5-.2.5.2a.7.7,0,0,1,.2.5.6.6,0,0,1-.2.5l-.5.2-.5-.2A.6.6,0,0,1,152.8,277.5Zm1.2-1.8h-1.1v-4.7h1.2Z"/><path class="b" d="M523.7,65H770.3a33.2,33.2,0,0,1,33.2,33.2h0V314a33.2,33.2,0,0,1-33.2,33.2H213.7A33.2,33.2,0,0,1,180.5,314h0V98.2A33.2,33.2,0,0,1,213.7,65H460.3"/><rect class="b" x="467.9" y="44.6" width="48.3" height="37.89"/><rect class="b" x="467.9" y="44.6" width="48.3" height="6.06"/><rect class="b" x="482.4" y="63.6" width="14.3" height="7.39"/><polygon class="b" points="497.1 67.3 503.7 71.1 503.7 63.5 497.1 67.3"/><circle class="h" cx="471.5" cy="47.7" r="1.1"/><circle class="h" cx="475.3" cy="47.7" r="1.1"/><circle class="h" cx="479.1" cy="47.7" r="1.1"/><line class="b" x1="492" y1="82.5" x2="484" y2="97"/><line class="b" x1="492" y1="82.5" x2="500.1" y2="97"/>
    </symbol>

    <symbol id="sm-background"  viewBox="0 0 544.6 363">
        ><title>Untitled-3</title><path class="a" d="M228.8,64a9.1,9.1,0,0,1-2.9-6.7h0a9.1,9.1,0,0,1,4.3-7.8"/><path class="a" d="M273,11.6h42.7a9.1,9.1,0,0,1,9.1,9.1h0a9.1,9.1,0,0,0,9.1,9.1h6.5a9.1,9.1,0,0,1,9.1,9.1h0a9.1,9.1,0,0,1-9.1,9.1H328.3a9.1,9.1,0,0,0-9.1,9.1h0A9.1,9.1,0,0,0,322,64"/><path class="a" d="M176,27.1a14,14,0,0,0-13.4-10.2H81.4A14,14,0,0,0,67.5,30.9h0a14,14,0,0,1-13.9,14H43.6A14,14,0,0,0,29.7,58.7h0a14,14,0,0,0,13.9,14H62.3A14,14,0,0,1,76.2,86.7h0a14,14,0,0,1-13.9,13.9H14.2A14,14,0,0,0,.3,114.6h0a14,14,0,0,0,13.9,13.9H95.4a14,14,0,0,0,13.9-13.9h0a14,14,0,0,1,13.9-13.9h16.3"/><polyline class="b" points="133.4 90.5 133.4 44.7 149.9 44.7"/><line class="b" x1="189.1" y1="49.5" x2="197.9" y2="49.5"/><path class="b" d="M273.7,45.2A28.6,28.6,0,0,0,233.3,5.7"/><path class="b" d="M221.5,30.6a28.7,28.7,0,0,0,39.8,24.7"/><path class="b" d="M269,45.2A24.9,24.9,0,0,0,236.1,8.3"/><path class="b" d="M225.3,27q-.1.9-.1,1.9a24.9,24.9,0,0,0,36.2,22.2"/><polygon class="c" points="253.7 23.7 253.4 25.6 255 27.9 262.8 27.4 265.6 24.6 262.9 23.7 253.7 23.7"/><line class="b" x1="189.1" y1="43.1" x2="189.1" y2="54.9"/><polyline class="b" points="149.9 54.9 149.9 27.1 189.1 27.1 189.1 35.8"/><circle class="b" cx="161.5" cy="37" r="3.1"/><path class="b" d="M163.4,40.7l-1.9,3.3-1.9-3.3a4.4,4.4,0,0,0-2.5,4v4.4h8.8V44.7A4.4,4.4,0,0,0,163.4,40.7Z"/><line class="b" x1="253.2" y1="37" x2="272.4" y2="17.8"/><line class="b" x1="261.2" y1="6.6" x2="247.8" y2="20"/><path class="b" d="M266,46.4"/><polyline class="b" points="198 41.8 190.9 41.1 183.1 49.9 180.8 48.1 187.9 36.9 188.6 35.8 190.2 35.9 200 36.9"/><polyline class="b" points="198.2 42 198.5 49 191.2 54.9"/><polyline class="b" points="197.9 54.9 202.5 52.3 203.7 51.6 203.6 50.1 203.2 40.2"/><path class="b" d="M202.7,34.3l-4.6,4.4a2.3,2.3,0,0,0-.1,3.2h0a2.3,2.3,0,0,0,3.2.1h0l4.6-4.4"/><path class="b" d="M223.6,6.8,204.4,25a7.9,7.9,0,0,0-.3,11.2h0a7.9,7.9,0,0,0,11.2.3l13.7-13"/><path class="b" d="M242.3,36.8,223.6,18.1a7.9,7.9,0,0,1,0-11.2h0a7.9,7.9,0,0,1,11.2,0l18.7,18.7a7.9,7.9,0,0,1,0,11.2h0A7.9,7.9,0,0,1,242.3,36.8Z"/><circle class="b" cx="228.5" cy="12.1" r="2.3"/><circle class="b" cx="247.8" cy="31.2" r="2.3"/><polyline class="b" points="139.7 90.5 133.4 90.5 144.6 54.9 210 54.9 207.1 64"/><path class="a" d="M434.5,139.5a14,14,0,0,0,.2-2.6h0A14,14,0,0,1,448.7,123h48.1a14,14,0,0,0,13.9-13.9h0a14,14,0,0,0-13.9-13.9H478.1a14,14,0,0,1-13.9-13.9h0a14,14,0,0,1,13.9-13.9H488a14,14,0,0,0,13.9-14h0a14,14,0,0,0-13.9-14H420.6"/><path class="a" d="M141,245h-9.5A14,14,0,0,1,117.5,231h0a14,14,0,0,0-13.9-13.9H55.5a14,14,0,0,1-13.9-13.9h0a14,14,0,0,1,13.9-13.9H74.1a14,14,0,0,0,13.9-13.9h0a14,14,0,0,0-13.9-13.9H64.2a14,14,0,0,1-13.9-13.9h0a14,14,0,0,1,13.9-13.9h75.4"/><path class="a" d="M419.5,279h5a14,14,0,0,0,13.9-14h0a14,14,0,0,1,13.9-13.9h2a14,14,0,0,0,13.9-13.9h0a14,14,0,0,1,13.9-13.9h48.1a14,14,0,0,0,13.9-13.9h0a14,14,0,0,0-13.9-13.9H511.7a14,14,0,0,1-13.9-13.9h0a14,14,0,0,1,13.9-13.9h9.9a14,14,0,0,0,14-13.9h0a14,14,0,0,0-14-13.9H429.1"/><path class="a" d="M166.1,347.1a14.1,14.1,0,0,1,.1,1.6h0a14,14,0,0,0,14,14H357.3a14,14,0,0,0,13.9-14h0a14,14,0,0,1,13.9-14h48.1a14,14,0,0,0,13.9-14h0a14,14,0,0,0-13.9-14h-5"/><path class="a" d="M230.6,256.7a13.9,13.9,0,0,1,2.7,8.3h0a14,14,0,0,1-13.9,14h-9.9a14,14,0,0,0-13.9,14h0a13.9,13.9,0,0,1-5.3,11"/><path class="b" d="M190.2,283.3V326a4.5,4.5,0,0,1-4.5,4.5H110.4a4.5,4.5,0,0,1-4.5-4.5h0V279.1a4.5,4.5,0,0,1,4.5-4.5h62.3"/><path class="b" d="M189.3,330.5H106.8a1.7,1.7,0,0,0-1.4,1L98.9,344c-.7,1.4.1,3.1,1.4,3.1h95.3c1.3,0,2.1-1.7,1.4-3.1l-6.4-12.5A1.7,1.7,0,0,0,189.3,330.5Z"/><polyline class="b" points="187.7 284.1 187.7 327.6 108.4 327.6 108.4 277.5 172.3 277.5"/><line class="b" x1="98.7" y1="345" x2="197.4" y2="345"/><path class="b" d="M151.7,345h0c0,.7-.9,1.2-2.1,1.2h-3c-1.2,0-2.1-.5-2.1-1.2h0"/><circle class="b" cx="120.5" cy="314.1" r="6.6"/><circle class="b" cx="120.5" cy="314.1" r="4.1"/><line class="b" x1="120.5" y1="307.4" x2="120.5" y2="310"/><line class="b" x1="123.8" y1="311.6" x2="125.6" y2="309.8"/><polyline class="b" points="133.1 307.9 133.1 320.2 148.9 320.2"/><rect class="b" x="133.1" y="309.2" width="12.7" height="1.98"/><rect class="b" x="133.1" y="313.1" width="8.4" height="1.98"/><rect class="b" x="133.1" y="316.7" width="11.2" height="1.98"/><line class="b" x1="154.8" y1="307.8" x2="178.5" y2="307.8"/><line class="b" x1="154.8" y1="311" x2="183.2" y2="311"/><line class="b" x1="154.8" y1="314.3" x2="176.4" y2="314.3"/><line class="b" x1="154.8" y1="317.5" x2="182.5" y2="317.5"/><line class="b" x1="154.8" y1="320.7" x2="178.5" y2="320.7"/><polyline class="b" points="117.5 287.6 127.8 294.1 138 289.7 148.3 283.4 158.6 290.9 168.8 289.8 179.1 294.1"/><circle class="d" cx="179.1" cy="294.1" r="1.3"/><circle class="d" cx="168.8" cy="289.8" r="1.3"/><circle class="d" cx="158.5" cy="290.9" r="1.3"/><circle class="d" cx="148.3" cy="283.4" r="1.3"/><circle class="d" cx="138" cy="289.7" r="1.3"/><circle class="d" cx="127.8" cy="294.1" r="1.3"/><circle class="d" cx="117.5" cy="287.6" r="1.3"/><polyline class="b" points="113.9 282.7 113.9 301.5 182.2 301.5"/><path class="b" d="M186.6,269.2h-6.7a7.5,7.5,0,0,0-1.1,15v3.1l2.7-3h5.1a7.5,7.5,0,0,0,0-15.1h0Z"/><path class="d" d="M182.5,279.6a.7.7,0,0,1,.2-.5l.6-.2.6.2a.7.7,0,0,1,.2.5.7.7,0,0,1-.2.5l-.6.2-.6-.2A.7.7,0,0,1,182.5,279.6Zm1.3-2h-1.2v-5.2h1.3Z"/><path class="b" d="M352.8,46.2v-26a1.1,1.1,0,0,1,1.1-1.1h65.6a1.1,1.1,0,0,1,1.1,1.1h0V67"/><polyline class="b" points="358 61.7 358 21.4 415.4 21.4 415.4 64.7"/><circle class="b" cx="418" cy="43.8" r="1.6"/><path class="b" d="M346.2,64V48.8a3.8,3.8,0,0,1,3.8-3.8h0a3.8,3.8,0,0,1,3.8,3.8v8.3a4.1,4.1,0,0,0,2.8,3.9h0a7.5,7.5,0,0,1,3.8,3"/><line class="b" x1="364.5" y1="42.5" x2="409" y2="42.5"/><line class="b" x1="373.3" y1="46.3" x2="400.1" y2="46.3"/><line class="b" x1="369" y1="38.1" x2="404.4" y2="38.1"/><line class="b" x1="367.3" y1="33.2" x2="406.1" y2="33.2"/><rect class="b" x="365.3" y="21.4" width="43.7" height="7.43"/><path class="b" d="M384.5,60.7h-9.2a2,2,0,0,1-2-2V54.6a2,2,0,0,1,2-2h22.9a2,2,0,0,1,2,2v4.2a2,2,0,0,1-2,2h-6.5"/><line class="b" x1="400" y1="51.9" x2="400" y2="49.4"/><line class="b" x1="401.2" y1="52.4" x2="403" y2="50.6"/><line class="b" x1="401.7" y1="53.6" x2="404.2" y2="53.6"/><path class="b" d="M384.5,64V59a3.7,3.7,0,0,1,3.6-3.7,3.6,3.6,0,0,1,3.5,3.6V64"/><line class="b" x1="428.3" y1="290.4" x2="428.3" y2="288.1"/><line class="b" x1="428.3" y1="297.4" x2="428.3" y2="293.4"/><polyline class="b" points="375.6 307.1 375.6 320.2 428.3 320.2 428.3 299.9"/><path class="b" d="M419.5,291.2"/><line class="b" x1="388.8" y1="307.1" x2="375.6" y2="320.2"/><line class="b" x1="428.3" y1="320.2" x2="415.1" y2="307.1"/><line class="b" x1="419.5" y1="290.4" x2="419.5" y2="288.1"/><line class="b" x1="419.5" y1="297.4" x2="419.5" y2="293.4"/><polyline class="b" points="419.5 285.4 419.5 272.3 366.9 272.3 366.9 307.1 419.5 307.1 419.5 299.9"/><polyline class="b" points="419.5 272.3 393.2 298.4 366.9 272.3"/><line class="b" x1="384.4" y1="289.7" x2="366.9" y2="307.1"/><line class="b" x1="419.5" y1="307.1" x2="402" y2="289.7"/><line class="b" x1="443.3" y1="290.4" x2="416.2" y2="290.4"/><line class="b" x1="434.5" y1="297.4" x2="414.2" y2="297.4"/><polygon class="d" points="424.3 288.1 420.9 290.4 421.8 290.4 425.1 288.1 424.3 288.1"/><line class="b" x1="433.1" y1="285.4" x2="410.9" y2="285.4"/><path class="e" d="M307.4,64h103a18.7,18.7,0,0,1,18.7,18.7V238.1a18.7,18.7,0,0,1-18.7,18.7H158.4a18.7,18.7,0,0,1-18.7-18.7V82.7A18.7,18.7,0,0,1,158.3,64h103"/><rect class="e" x="266.9" y="49.2" width="35.1" height="27.54"/><rect class="e" x="266.9" y="49.2" width="35.1" height="4.4"/><rect class="e" x="277.4" y="63" width="10.4" height="5.37"/><polygon class="e" points="288.1 65.6 292.9 68.4 292.9 62.9 288.1 65.6"/><circle class="d" cx="269.4" cy="51.4" r="0.8"/><circle class="d" cx="272.2" cy="51.4" r="0.8"/><circle class="d" cx="275" cy="51.4" r="0.8"/><line class="e" x1="284.4" y1="76.7" x2="278.5" y2="87.2"/><line class="e" x1="284.4" y1="76.7" x2="290.3" y2="87.2"/>
     </symbol>

</svg>